:SAMPLES-PER-SECOND 30
:FULLY-SPECIFIED
:DEGREES
956
root  16.7534 34.7271 -5.5313 -172.204 82.2798 -179.438
RightUpLeg  -25.3806 -15.0563 -11.4377
RightLeg  53.9606 -0.112119 -0.592848
RightFoot  -25.8037 1.63783 14.1987
RightToes  -1.81608e-008 0 -3.6325e-017
Spine  24.9507 0.2798 -16.3207
Spine1  -13.5562 -3.29881 8.34048
HEad  -34.8685 1.26707 -1.65016
LeftShoulder1  0.27324 1.94959 -10.2673
LeftArm  -4.96436 -57.016 -50.9704
LeftForeArm  -15.6055 -26.4512 -6.4512
LeftHand  -0.304492 9.18638 -7.36591
RightShoulder  0.0281993 -3.3583 16.267
RightArm  -10.6436 27.8769 37.4048
RightForeArm  -24.8486 58.973 21.1151
RightHand  -0.270423 2.8155 -4.04575
LeftUpLeg  -18.9744 20.9753 25.462
LeftLeg  -0.469878 6.48692 -0.412376
LeftFoot  21.2295 6.83632 -23.5773
LeftToes  1.81866e-011 -6.13092e-011 2.52013e-011
957
root  15.9601 34.2653 -4.88752 -179.702 83.5315 172.738
RightUpLeg  -28.8927 -13.8253 -10.5599
RightLeg  56.4331 -1.25723 -2.47662
RightFoot  -28.0527 1.3103 10.1226
RightToes  -1.81608e-008 0 -3.6325e-017
Spine  25.9709 0.495141 -14.2864
Spine1  -13.7392 -2.64014 5.92728
HEad  -36.5492 0.84865 -2.06004
LeftShoulder1  0.237218 2.13388 -9.96888
LeftArm  -7.82829 -57.1026 -49.4194
LeftForeArm  -14.9583 -27.594 -6.69606
LeftHand  -0.322039 9.47798 -7.27694
RightShoulder  0.0994396 -3.03866 15.759
RightArm  -12.1307 28.6422 37.7228
RightForeArm  -23.3865 59.9714 21.9337
RightHand  -0.29212 2.78693 -4.36243
LeftUpLeg  -19.7289 21.0628 25.4718
LeftLeg  -1.06906 8.17854 -0.299016
LeftFoot  23.3646 7.23066 -23.3415
LeftToes  1.81866e-011 -6.13092e-011 2.52013e-011
958
root  15.0699 33.6743 -4.24419 167.34 85.0906 160.368
RightUpLeg  -33.4913 -12.6881 -10.4091
RightLeg  61.9801 -1.08603 -2.74457
RightFoot  -27.3892 1.07568 8.93895
RightToes  -1.81608e-008 0 -3.6325e-017
Spine  27.8145 0.585981 -11.9613
Spine1  -13.4177 -2.01378 2.55782
HEad  -38.6259 0.812222 -2.69091
LeftShoulder1  0.175815 2.46601 -9.54679
LeftArm  -11.1295 -57.6116 -47.6478
LeftForeArm  -15.0347 -27.8826 -6.77053
LeftHand  -0.342451 9.49603 -7.79384
RightShoulder  0.175804 -2.683 15.1062
RightArm  -13.5701 30.4518 38.0125
RightForeArm  -22.4158 60.9092 22.7771
RightHand  -0.34318 2.66423 -5.15517
LeftUpLeg  -20.2991 21.2709 25.8551
LeftLeg  0.124486 9.42862 0.0939988
LeftFoot  24.6414 7.44599 -23.1486
LeftToes  1.81866e-011 -6.13092e-011 2.52013e-011
959
root  14.2277 33.2673 -3.75576 161.278 85.6424 155.284
RightUpLeg  -35.8013 -14.3133 -9.40348
RightLeg  64.6389 -0.630224 -2.05677
RightFoot  -27.5126 0.697722 6.23029
RightToes  -1.81608e-008 0 -3.6325e-017
Spine  29.8372 0.0277505 -8.57121
Spine1  -12.6192 -1.91729 0.593621
HEad  -39.7671 0.751066 -3.09434
LeftShoulder1  0.155257 2.54334 -8.68793
LeftArm  -13.4921 -57.5807 -46.9956
LeftForeArm  -15.8259 -27.4092 -6.69178
LeftHand  -0.30953 9.29351 -7.30046
RightShoulder  0.178057 -2.65955 14.8346
RightArm  -14.6423 32.9392 37.7316
RightForeArm  -21.2204 61.209 23.001
RightHand  -0.304926 2.52086 -4.67844
LeftUpLeg  -19.9032 21.7264 26.5224
LeftLeg  -0.97497 9.71101 -0.0869879
LeftFoot  26.3462 7.80039 -23.0869
LeftToes  1.81866e-011 -6.13092e-011 2.52013e-011
960
root  13.464 32.9385 -3.34055 149.763 85.8903 144.635
RightUpLeg  -37.4453 -15.3354 -9.17731
RightLeg  66.4363 -0.0279314 -0.74368
RightFoot  -27.8353 0.419847 4.19684
RightToes  -1.81608e-008 0 -3.6325e-017
Spine  31.3117 -0.278383 -6.20305
Spine1  -11.5964 -1.8068 0.358591
HEad  -40.0267 0.691532 -3.59778
LeftShoulder1  0.177711 2.40575 -8.7592
LeftArm  -14.8127 -57.2199 -46.7548
LeftForeArm  -15.7523 -26.9342 -6.57307
LeftHand  -0.278449 8.74874 -7.51991
RightShoulder  0.235031 -2.3444 13.6226
RightArm  -16.1522 34.5566 37.5056
RightForeArm  -20.8548 61.1302 22.895
RightHand  -0.340104 2.68722 -5.10459
LeftUpLeg  -18.9846 21.4689 26.6593
LeftLeg  -2.98604 10.8137 -0.132619
LeftFoot  28.0119 8.20569 -23.1948
LeftToes  1.81866e-011 -6.13092e-011 2.52013e-011
961
root  12.7486 32.5737 -2.94564 128.386 85.8513 123.963
RightUpLeg  -39.7135 -15.4668 -9.34081
RightLeg  68.7842 0.123538 -0.404474
RightFoot  -27.6877 0.210406 2.77084
RightToes  -1.81608e-008 0 -3.6325e-017
Spine  32.5218 -0.325613 -4.82995
Spine1  -11.0083 -1.5245 0.022088
HEad  -39.9022 0.407399 -4.51594
LeftShoulder1  0.283008 1.74616 -8.61034
LeftArm  -15.7864 -56.198 -46.3107
LeftForeArm  -16.4581 -27.1058 -6.64696
LeftHand  -0.286144 8.75451 -7.76123
RightShoulder  0.252522 -2.20817 12.7737
RightArm  -17.4363 36.2087 36.6244
RightForeArm  -20.6622 60.8475 22.5943
RightHand  -0.328601 2.20964 -5.21009
LeftUpLeg  -18.6312 21.1878 26.4551
LeftLeg  -3.38926 12.107 -0.149228
LeftFoot  28.5819 8.11982 -22.6228
LeftToes  1.81866e-011 -6.13092e-011 2.52013e-011
962
root  12.1115 32.3229 -2.65342 116.412 85.4995 112.238
RightUpLeg  -41.7652 -15.9586 -9.20739
RightLeg  70.1936 0.311962 0.147631
RightFoot  -27.2413 -0.0419834 1.02187
RightToes  -1.81608e-008 0 -3.6325e-017
Spine  33.4166 -0.912181 -2.97648
Spine1  -10.6615 -1.62997 -0.176622
HEad  -40.0406 0.403967 -5.13571
LeftShoulder1  0.303548 1.66866 -9.14128
LeftArm  -16.3075 -55.4403 -46.0072
LeftForeArm  -17.2573 -27.4854 -6.77537
LeftHand  -0.276083 8.73328 -7.48304
RightShoulder  0.287589 -1.95121 11.557
RightArm  -18.2503 37.4257 36.1372
RightForeArm  -21.0974 60.6746 22.4539
RightHand  -0.352086 2.35011 -5.4717
LeftUpLeg  -19.0737 21.2816 26.2587
LeftLeg  -3.14049 12.8611 -0.282612
LeftFoot  27.3466 7.87197 -22.6767
LeftToes  1.81866e-011 -6.13092e-011 2.52013e-011
963
root  11.4741 32.18 -2.39865 110.902 84.4647 106.954
RightUpLeg  -43.4332 -17.0244 -9.53037
RightLeg  71.0041 0.505438 0.780456
RightFoot  -26.5338 -0.215725 -0.269178
RightToes  -1.81608e-008 0 -3.6325e-017
Spine  34.1315 -1.648 -1.47588
Spine1  -10.2064 -1.92857 -0.55483
HEad  -40.3917 0.157047 -5.69455
LeftShoulder1  0.368627 1.23054 -8.74659
LeftArm  -17.4155 -54.6467 -46.8433
LeftForeArm  -16.3711 -27.6311 -6.77078
LeftHand  -0.231187 8.20408 -7.20123
RightShoulder  0.290748 -1.9165 11.3334
RightArm  -19.0433 38.4883 34.5062
RightForeArm  -22.0801 60.4448 22.2967
RightHand  -0.393465 2.86641 -5.75355
LeftUpLeg  -20.0704 21.1197 25.3776
LeftLeg  -2.21408 13.5848 -0.381844
LeftFoot  24.2037 7.0584 -22.2681
LeftToes  1.81866e-011 -6.13092e-011 2.52013e-011
964
root  10.8888 32.2014 -2.15565 105.126 83.6323 101.906
RightUpLeg  -43.9673 -17.1249 -9.886
RightLeg  70.9098 0.5544 0.938421
RightFoot  -25.576 -0.304618 -1.04977
RightToes  -1.81608e-008 0 -3.6325e-017
Spine  35.4676 -1.74872 -0.578924
Spine1  -9.76024 -1.88881 0.593524
HEad  -41.1617 -0.148497 -7.1435
LeftShoulder1  0.384395 1.21471 -9.38688
LeftArm  -17.0014 -54.5426 -47.6304
LeftForeArm  -17.0316 -27.7776 -6.83687
LeftHand  -0.205144 7.88757 -7.02782
RightShoulder  0.262664 -1.97943 10.1181
RightArm  -20.3005 39.0554 33.0774
RightForeArm  -21.1736 60.6098 22.3953
RightHand  -0.337352 2.70993 -5.04955
LeftUpLeg  -19.6275 21.1642 24.9378
LeftLeg  -2.08732 14.482 -0.94476
LeftFoot  19.1603 5.91359 -21.902
LeftToes  1.81866e-011 -6.13092e-011 2.52013e-011
965
root  10.3605 32.3358 -1.94398 105.302 82.4184 101.946
RightUpLeg  -44.8721 -17.5909 -10.3926
RightLeg  70.1697 0.556715 0.906937
RightFoot  -24.5671 -0.330757 -1.41514
RightToes  -1.81608e-008 0 -3.6325e-017
Spine  35.7828 -2.14448 0.178475
Spine1  -9.6376 -2.10148 1.30848
HEad  -41.7923 -0.427487 -8.04374
LeftShoulder1  0.447813 0.854025 -9.51894
LeftArm  -16.6579 -54.4534 -48.5281
LeftForeArm  -16.9681 -27.5896 -6.78783
LeftHand  -0.222657 7.90109 -7.7552
RightShoulder  0.247877 -2.05106 9.93797
RightArm  -21.2809 39.3507 31.2852
RightForeArm  -21.0414 60.5113 22.29
RightHand  -0.314155 2.4997 -4.82901
LeftUpLeg  -20.2207 20.8149 23.7346
LeftLeg  -1.70841 16.241 -1.39304
LeftFoot  12.3932 4.35999 -20.8635
LeftToes  1.81866e-011 -6.13092e-011 2.52013e-011
966
root  9.85628 32.6009 -1.77933 108.736 80.7949 105.238
RightUpLeg  -45.1918 -18.4996 -11.4077
RightLeg  68.7861 0.558192 0.844129
RightFoot  -23.2931 -0.318266 -1.53513
RightToes  -1.81608e-008 0 -3.6325e-017
Spine  36.0928 -2.7474 0.69552
Spine1  -9.70046 -2.64608 2.10166
HEad  -42.5073 -0.440312 -8.17517
LeftShoulder1  0.489386 0.590446 -9.40091
LeftArm  -15.6329 -54.6168 -49.4829
LeftForeArm  -17.6105 -27.5299 -6.80244
LeftHand  -0.222967 8.18411 -6.94281
RightShoulder  0.241678 -2.0958 10.0593
RightArm  -22.3848 39.2294 29.7915
RightForeArm  -20.9074 60.7257 22.4928
RightHand  -0.296649 2.76406 -4.43853
LeftUpLeg  -20.8175 19.8629 21.8024
LeftLeg  -1.61437 18.4463 -1.72494
LeftFoot  5.28653 2.75069 -18.9027
LeftToes  1.81866e-011 -6.13092e-011 2.52013e-011
